<svg width="94" height="32" viewBox="0 0 94 32" fill="none" xmlns="http://www.w3.org/2000/svg">
<path d="M17.5024 9C17.5024 7.31886 17.0039 5.67547 16.0699 4.27765C15.1359 2.87984 13.8084 1.79037 12.2553 1.14702C10.7021 0.503679 8.99301 0.335351 7.34417 0.663325C5.69533 0.9913 4.18078 1.80085 2.99203 2.98959C1.80329 4.17834 0.993741 5.69289 0.665767 7.34173C0.337792 8.99057 0.506121 10.6996 1.14947 12.2528C1.79281 13.806 2.88228 15.1335 4.28009 16.0675C5.67791 17.0015 7.3213 17.5 9.00244 17.5V9H17.5024Z" fill="#D7092E"/>
<rect x="12" y="12" width="5" height="16" fill="#E4EEEC"/>
<rect x="17" y="17" width="5" height="11" fill="#E4EEEC"/>
<rect x="22" y="22" width="5" height="6" fill="#E4EEEC"/>
<path d="M29.9912 1.33594H32.0493L32.0566 8.72607C32.0518 9.23389 31.9541 9.69775 31.7637 10.1177C31.5781 10.5327 31.3218 10.8916 30.9946 11.1943C30.6675 11.4971 30.2817 11.7314 29.8374 11.8975C29.3979 12.0635 28.9243 12.1465 28.4165 12.1465C27.8794 12.1465 27.3911 12.0781 26.9517 11.9414C26.5122 11.8047 26.1362 11.5996 25.8237 11.3262C25.5063 11.0576 25.2598 10.7183 25.084 10.3081C24.9082 9.89795 24.8179 9.41699 24.813 8.86523H26.8784C26.8784 9.11914 26.9028 9.34131 26.9517 9.53174C27.0005 9.72217 27.0737 9.8833 27.1714 10.0151C27.2983 10.1763 27.4644 10.2959 27.6694 10.374C27.8745 10.4521 28.1235 10.4912 28.4165 10.4912C28.6509 10.4912 28.8657 10.4473 29.061 10.3594C29.2563 10.2666 29.4224 10.1421 29.5591 9.98584C29.6958 9.82959 29.8008 9.64404 29.874 9.4292C29.9521 9.20947 29.9912 8.9751 29.9912 8.72607V1.33594ZM37.4927 12C37.4438 11.9023 37.4023 11.79 37.3682 11.6631C37.334 11.5361 37.3047 11.4019 37.2803 11.2603C37.168 11.3823 37.0386 11.4971 36.8921 11.6045C36.7456 11.7119 36.5845 11.8047 36.4087 11.8828C36.228 11.9658 36.0303 12.0293 35.8154 12.0732C35.6006 12.1221 35.3687 12.1465 35.1196 12.1465C34.7144 12.1465 34.3408 12.0879 33.999 11.9707C33.6621 11.8535 33.3716 11.6899 33.1274 11.48C32.8833 11.27 32.6929 11.021 32.5562 10.7329C32.4194 10.4399 32.3511 10.1226 32.3511 9.78076C32.3511 9.34131 32.4365 8.95312 32.6074 8.61621C32.7783 8.27441 33.0347 7.99365 33.3765 7.77393C33.6841 7.57373 34.0625 7.42236 34.5117 7.31982C34.9658 7.2124 35.4858 7.15869 36.0718 7.15869H37.207V6.68994C37.207 6.50439 37.1777 6.33838 37.1191 6.19189C37.0605 6.04053 36.9727 5.91113 36.8555 5.80371C36.7334 5.69141 36.5796 5.60596 36.394 5.54736C36.2134 5.48389 36.001 5.45215 35.7568 5.45215C35.542 5.45215 35.3564 5.479 35.2002 5.53271C35.0439 5.58154 34.917 5.65234 34.8193 5.74512C34.7314 5.82812 34.6655 5.92822 34.6216 6.04541C34.5825 6.1626 34.563 6.29199 34.563 6.43359H32.5269C32.5269 6.09668 32.6001 5.77686 32.7466 5.47412C32.8979 5.17139 33.1177 4.90527 33.4058 4.67578C33.689 4.44629 34.0356 4.26562 34.4458 4.13379C34.8608 3.99707 35.3345 3.92871 35.8667 3.92871C36.3452 3.92871 36.7896 3.9873 37.1997 4.10449C37.6147 4.22168 37.9736 4.39502 38.2764 4.62451C38.5791 4.854 38.8159 5.14453 38.9868 5.49609C39.1577 5.84277 39.2432 6.24561 39.2432 6.70459V10.103C39.2432 10.5278 39.27 10.8794 39.3237 11.1577C39.3774 11.436 39.4556 11.6753 39.5581 11.8755V12H37.4927ZM35.5518 10.5718C35.7568 10.5718 35.9473 10.5474 36.123 10.4985C36.2988 10.4497 36.4575 10.3862 36.5991 10.3081C36.7407 10.23 36.8628 10.1421 36.9653 10.0444C37.0679 9.94189 37.1484 9.83936 37.207 9.73682V8.37451H36.167C35.8496 8.37451 35.5786 8.40625 35.354 8.46973C35.1294 8.52832 34.9463 8.61133 34.8047 8.71875C34.6631 8.83105 34.5581 8.96533 34.4897 9.12158C34.4214 9.27295 34.3872 9.43896 34.3872 9.61963C34.3872 9.76123 34.4116 9.89307 34.4604 10.0151C34.5142 10.1323 34.5898 10.2324 34.6875 10.3154C34.7852 10.3936 34.9048 10.457 35.0464 10.5059C35.1929 10.5498 35.3613 10.5718 35.5518 10.5718ZM40.0796 15.0469V4.0752H41.9619L42.0352 4.85156C42.1426 4.71973 42.2598 4.60254 42.3867 4.5C42.5137 4.39258 42.6504 4.2998 42.7969 4.22168C42.9727 4.12891 43.1655 4.05811 43.3755 4.00928C43.5903 3.95557 43.8198 3.92871 44.064 3.92871C44.5669 3.92871 45.0112 4.02637 45.397 4.22168C45.7827 4.41211 46.1074 4.68311 46.3711 5.03467C46.6348 5.39111 46.8325 5.81836 46.9644 6.31641C47.1011 6.80957 47.1694 7.35645 47.1694 7.95703V8.11084C47.1694 8.68701 47.1011 9.22168 46.9644 9.71484C46.8325 10.208 46.6372 10.6328 46.3784 10.9893C46.1147 11.3506 45.79 11.6338 45.4043 11.8389C45.0186 12.0439 44.5767 12.1465 44.0786 12.1465C43.8149 12.1465 43.5708 12.1172 43.3462 12.0586C43.1265 12.0049 42.9214 11.9243 42.731 11.8169C42.6187 11.7485 42.5112 11.6729 42.4087 11.5898C42.3062 11.5068 42.2085 11.4141 42.1157 11.3115V15.0469H40.0796ZM45.1333 7.95703C45.1333 7.625 45.1016 7.31494 45.0381 7.02686C44.9795 6.73389 44.8867 6.47998 44.7598 6.26514C44.6279 6.05518 44.4595 5.88916 44.2544 5.76709C44.0542 5.64502 43.8101 5.58398 43.522 5.58398C43.356 5.58398 43.2046 5.60107 43.0679 5.63525C42.9312 5.66455 42.8066 5.7085 42.6943 5.76709C42.5674 5.83545 42.4551 5.9209 42.3574 6.02344C42.2646 6.12598 42.1841 6.24561 42.1157 6.38232V9.69287C42.1792 9.81982 42.2549 9.93457 42.3428 10.0371C42.4355 10.1396 42.5405 10.2275 42.6577 10.3008C42.77 10.3691 42.8994 10.4229 43.0459 10.4619C43.1924 10.4961 43.356 10.5132 43.5366 10.5132C43.8247 10.5132 44.0688 10.4497 44.269 10.3228C44.4741 10.1958 44.6401 10.0225 44.7671 9.80273C44.894 9.58301 44.9868 9.3291 45.0454 9.04102C45.104 8.74805 45.1333 8.43799 45.1333 8.11084V7.95703ZM52.5103 12C52.4614 11.9023 52.4199 11.79 52.3857 11.6631C52.3516 11.5361 52.3223 11.4019 52.2979 11.2603C52.1855 11.3823 52.0562 11.4971 51.9097 11.6045C51.7632 11.7119 51.6021 11.8047 51.4263 11.8828C51.2456 11.9658 51.0479 12.0293 50.833 12.0732C50.6182 12.1221 50.3862 12.1465 50.1372 12.1465C49.7319 12.1465 49.3584 12.0879 49.0166 11.9707C48.6797 11.8535 48.3892 11.6899 48.145 11.48C47.9009 11.27 47.7104 11.021 47.5737 10.7329C47.437 10.4399 47.3687 10.1226 47.3687 9.78076C47.3687 9.34131 47.4541 8.95312 47.625 8.61621C47.7959 8.27441 48.0522 7.99365 48.394 7.77393C48.7017 7.57373 49.0801 7.42236 49.5293 7.31982C49.9834 7.2124 50.5034 7.15869 51.0894 7.15869H52.2246V6.68994C52.2246 6.50439 52.1953 6.33838 52.1367 6.19189C52.0781 6.04053 51.9902 5.91113 51.873 5.80371C51.751 5.69141 51.5972 5.60596 51.4116 5.54736C51.231 5.48389 51.0186 5.45215 50.7744 5.45215C50.5596 5.45215 50.374 5.479 50.2178 5.53271C50.0615 5.58154 49.9346 5.65234 49.8369 5.74512C49.749 5.82812 49.6831 5.92822 49.6392 6.04541C49.6001 6.1626 49.5806 6.29199 49.5806 6.43359H47.5444C47.5444 6.09668 47.6177 5.77686 47.7642 5.47412C47.9155 5.17139 48.1353 4.90527 48.4233 4.67578C48.7065 4.44629 49.0532 4.26562 49.4634 4.13379C49.8784 3.99707 50.3521 3.92871 50.8843 3.92871C51.3628 3.92871 51.8071 3.9873 52.2173 4.10449C52.6323 4.22168 52.9912 4.39502 53.2939 4.62451C53.5967 4.854 53.8335 5.14453 54.0044 5.49609C54.1753 5.84277 54.2607 6.24561 54.2607 6.70459V10.103C54.2607 10.5278 54.2876 10.8794 54.3413 11.1577C54.395 11.436 54.4731 11.6753 54.5757 11.8755V12H52.5103ZM50.5693 10.5718C50.7744 10.5718 50.9648 10.5474 51.1406 10.4985C51.3164 10.4497 51.4751 10.3862 51.6167 10.3081C51.7583 10.23 51.8804 10.1421 51.9829 10.0444C52.0854 9.94189 52.166 9.83936 52.2246 9.73682V8.37451H51.1846C50.8672 8.37451 50.5962 8.40625 50.3716 8.46973C50.147 8.52832 49.9639 8.61133 49.8223 8.71875C49.6807 8.83105 49.5757 8.96533 49.5073 9.12158C49.439 9.27295 49.4048 9.43896 49.4048 9.61963C49.4048 9.76123 49.4292 9.89307 49.478 10.0151C49.5317 10.1323 49.6074 10.2324 49.7051 10.3154C49.8027 10.3936 49.9224 10.457 50.064 10.5059C50.2104 10.5498 50.3789 10.5718 50.5693 10.5718ZM55.0679 12V4.0752H56.9136L57.0381 5.17383C57.1406 5.02734 57.2529 4.89307 57.375 4.771C57.4971 4.64893 57.6265 4.53906 57.7632 4.44141C57.9976 4.27539 58.2539 4.14844 58.5322 4.06055C58.8105 3.97266 59.106 3.92871 59.4185 3.92871C59.8188 3.92871 60.1851 3.9873 60.5171 4.10449C60.8491 4.22168 61.1372 4.40723 61.3813 4.66113C61.6206 4.91992 61.8062 5.25195 61.938 5.65723C62.0747 6.05762 62.1431 6.5459 62.1431 7.12207V12H60.1069V7.15137C60.1069 6.83887 60.0703 6.58252 59.9971 6.38232C59.9287 6.17725 59.8286 6.01611 59.6968 5.89893C59.5649 5.78174 59.4062 5.70117 59.2207 5.65723C59.0352 5.6084 58.8252 5.58398 58.5908 5.58398C58.3955 5.58398 58.2148 5.60596 58.0488 5.6499C57.8877 5.69385 57.7437 5.75977 57.6167 5.84766C57.5142 5.91113 57.4214 5.98682 57.3384 6.07471C57.2554 6.1626 57.1797 6.26025 57.1113 6.36768V12H55.0679ZM39.0308 23.3271H34.6509V26.3374H39.7705V28H32.5854V17.3359H39.7485V19.0132H34.6509V21.7012H39.0308V23.3271ZM43.6758 22.5508L45.4189 20.0752H47.6089L44.9502 23.9644L47.7041 28H45.5068L43.6831 25.4072L41.874 28H39.6694L42.4233 23.9644L39.772 20.0752H41.9619L43.6758 22.5508ZM47.5884 31.0469V20.0752H49.4707L49.5439 20.8516C49.6514 20.7197 49.7686 20.6025 49.8955 20.5C50.0225 20.3926 50.1592 20.2998 50.3057 20.2217C50.4814 20.1289 50.6743 20.0581 50.8843 20.0093C51.0991 19.9556 51.3286 19.9287 51.5728 19.9287C52.0757 19.9287 52.52 20.0264 52.9058 20.2217C53.2915 20.4121 53.6162 20.6831 53.8799 21.0347C54.1436 21.3911 54.3413 21.8184 54.4731 22.3164C54.6099 22.8096 54.6782 23.3564 54.6782 23.957V24.1108C54.6782 24.687 54.6099 25.2217 54.4731 25.7148C54.3413 26.208 54.146 26.6328 53.8872 26.9893C53.6235 27.3506 53.2988 27.6338 52.9131 27.8389C52.5273 28.0439 52.0854 28.1465 51.5874 28.1465C51.3237 28.1465 51.0796 28.1172 50.855 28.0586C50.6353 28.0049 50.4302 27.9243 50.2397 27.8169C50.1274 27.7485 50.02 27.6729 49.9175 27.5898C49.8149 27.5068 49.7173 27.4141 49.6245 27.3115V31.0469H47.5884ZM52.6421 23.957C52.6421 23.625 52.6104 23.3149 52.5469 23.0269C52.4883 22.7339 52.3955 22.48 52.2686 22.2651C52.1367 22.0552 51.9683 21.8892 51.7632 21.7671C51.563 21.645 51.3188 21.584 51.0308 21.584C50.8647 21.584 50.7134 21.6011 50.5767 21.6353C50.4399 21.6646 50.3154 21.7085 50.2031 21.7671C50.0762 21.8354 49.9639 21.9209 49.8662 22.0234C49.7734 22.126 49.6929 22.2456 49.6245 22.3823V25.6929C49.688 25.8198 49.7637 25.9346 49.8516 26.0371C49.9443 26.1396 50.0493 26.2275 50.1665 26.3008C50.2788 26.3691 50.4082 26.4229 50.5547 26.4619C50.7012 26.4961 50.8647 26.5132 51.0454 26.5132C51.3335 26.5132 51.5776 26.4497 51.7778 26.3228C51.9829 26.1958 52.1489 26.0225 52.2759 25.8027C52.4028 25.583 52.4956 25.3291 52.5542 25.041C52.6128 24.748 52.6421 24.438 52.6421 24.1108V23.957ZM55.4927 16.75H59.9238V26.3447H62.1943V28H55.4927V26.3447H57.8657V18.4126H55.4927V16.75ZM62.2983 23.9644C62.2983 23.3882 62.3813 22.856 62.5474 22.3677C62.7134 21.8745 62.9575 21.4473 63.2798 21.0859C63.5972 20.7246 63.9854 20.4414 64.4443 20.2363C64.9082 20.0312 65.438 19.9287 66.0337 19.9287C66.6294 19.9287 67.1592 20.0312 67.623 20.2363C68.0869 20.4414 68.48 20.7246 68.8022 21.0859C69.1196 21.4473 69.3613 21.8745 69.5273 22.3677C69.6934 22.856 69.7764 23.3882 69.7764 23.9644V24.1182C69.7764 24.6992 69.6934 25.2363 69.5273 25.7295C69.3613 26.2178 69.1196 26.6426 68.8022 27.0039C68.4849 27.3652 68.0942 27.6484 67.6304 27.8535C67.1665 28.0537 66.6392 28.1538 66.0483 28.1538C65.4526 28.1538 64.9204 28.0537 64.4517 27.8535C63.9878 27.6484 63.5972 27.3652 63.2798 27.0039C62.9575 26.6426 62.7134 26.2178 62.5474 25.7295C62.3813 25.2363 62.2983 24.6992 62.2983 24.1182V23.9644ZM64.3345 24.1182C64.3345 24.4502 64.3662 24.7627 64.4297 25.0557C64.4932 25.3438 64.5933 25.5952 64.73 25.8101C64.8667 26.0298 65.0425 26.2031 65.2573 26.3301C65.4771 26.457 65.7407 26.5205 66.0483 26.5205C66.3462 26.5205 66.6025 26.457 66.8174 26.3301C67.0322 26.2031 67.208 26.0298 67.3447 25.8101C67.4766 25.5952 67.5742 25.3438 67.6377 25.0557C67.7012 24.7627 67.7329 24.4502 67.7329 24.1182V23.9644C67.7329 23.6421 67.7012 23.3369 67.6377 23.0488C67.5742 22.7607 67.4766 22.5068 67.3447 22.2871C67.208 22.0674 67.0322 21.894 66.8174 21.7671C66.6025 21.6401 66.3413 21.5767 66.0337 21.5767C65.731 21.5767 65.4722 21.6401 65.2573 21.7671C65.0425 21.894 64.8667 22.0674 64.73 22.2871C64.5933 22.5068 64.4932 22.7607 64.4297 23.0488C64.3662 23.3369 64.3345 23.6421 64.3345 23.9644V24.1182ZM75.7764 19.9287C76.084 19.9287 76.3672 19.9507 76.626 19.9946C76.8896 20.0337 77.1021 20.0776 77.2632 20.1265L76.9629 22.1553C76.6943 22.0918 76.4185 22.0454 76.1353 22.0161C75.8569 21.9819 75.5908 21.9648 75.3369 21.9648C75.0732 21.9648 74.834 21.9893 74.6191 22.0381C74.4092 22.082 74.2212 22.1504 74.0552 22.2432C73.855 22.3506 73.6841 22.4873 73.5425 22.6533C73.4009 22.8193 73.2837 23.0146 73.1909 23.2393V28H71.1548V20.0752H73.0518L73.1323 21.1958L73.147 21.3716C73.4692 20.9224 73.855 20.5708 74.3042 20.3169C74.7534 20.0581 75.2441 19.9287 75.7764 19.9287ZM81.4395 28.1465C80.8291 28.1465 80.2749 28.0464 79.7769 27.8462C79.2788 27.646 78.8516 27.3726 78.4951 27.0259C78.1387 26.6841 77.8628 26.2812 77.6675 25.8174C77.4771 25.3486 77.3818 24.8481 77.3818 24.3159V24.0229C77.3818 23.4175 77.4771 22.8657 77.6675 22.3677C77.8579 21.8647 78.124 21.4326 78.4658 21.0713C78.8076 20.71 79.2129 20.4292 79.6816 20.229C80.1504 20.0288 80.6606 19.9287 81.2124 19.9287C81.7837 19.9287 82.2915 20.0239 82.7358 20.2144C83.1851 20.3999 83.5659 20.6636 83.8784 21.0054C84.186 21.3472 84.4204 21.7598 84.5815 22.2432C84.7427 22.7217 84.8232 23.2515 84.8232 23.8325V24.6968H79.4473V24.7188C79.5156 25.0361 79.6035 25.2925 79.7109 25.4878C79.8184 25.6782 79.9624 25.8516 80.1431 26.0078C80.3286 26.1689 80.541 26.2935 80.7803 26.3813C81.0195 26.4692 81.2808 26.5132 81.564 26.5132C81.9644 26.5132 82.3525 26.4375 82.7285 26.2861C83.1045 26.1348 83.4097 25.9077 83.644 25.605L84.6621 26.7036C84.4033 27.0698 83.9932 27.4019 83.4316 27.6997C82.8701 27.9976 82.2061 28.1465 81.4395 28.1465ZM81.1978 21.5767C80.9683 21.5767 80.7583 21.6182 80.5679 21.7012C80.3774 21.7793 80.2114 21.894 80.0698 22.0454C79.9233 22.1968 79.8013 22.3774 79.7036 22.5874C79.606 22.7974 79.5327 23.0317 79.4839 23.2905H82.8237V23.1294C82.8237 22.9146 82.7847 22.7119 82.7065 22.5215C82.6284 22.3311 82.521 22.165 82.3843 22.0234C82.2476 21.8867 82.0791 21.7793 81.8789 21.7012C81.6836 21.6182 81.4565 21.5767 81.1978 21.5767ZM90.7939 19.9287C91.1016 19.9287 91.3848 19.9507 91.6436 19.9946C91.9072 20.0337 92.1196 20.0776 92.2808 20.1265L91.9805 22.1553C91.7119 22.0918 91.436 22.0454 91.1528 22.0161C90.8745 21.9819 90.6084 21.9648 90.3545 21.9648C90.0908 21.9648 89.8516 21.9893 89.6367 22.0381C89.4268 22.082 89.2388 22.1504 89.0728 22.2432C88.8726 22.3506 88.7017 22.4873 88.5601 22.6533C88.4185 22.8193 88.3013 23.0146 88.2085 23.2393V28H86.1724V20.0752H88.0693L88.1499 21.1958L88.1646 21.3716C88.4868 20.9224 88.8726 20.5708 89.3218 20.3169C89.771 20.0581 90.2617 19.9287 90.7939 19.9287Z" fill="#E4EEEC"/>
</svg>
